<?xml version="1.0" encoding="UTF-8"?>
<svg id="Capa_1" data-name="Capa 1" xmlns="http://www.w3.org/2000/svg" viewBox="0 0 273.92 273.92">
  <path d="M159.46,49.61c13.29,24.78,33.64,39.3,61.52,43.54-1.33,9.54-4.08,18.41-7.81,26.98-10.14,23.31-26.86,41.36-46.4,56.97-8.29,6.62-17.23,12.42-25.81,18.7-2.93,2.14-5.48,2-8.39-.08-13.45-9.63-26.96-19.18-40.5-28.68-2.75-1.93-3.8-4.11-2.96-7.52,5.51-22.35,12.53-44.13,24.19-64.14,10.57-18.14,24.34-33.25,42.64-43.91,1.07-.63,2.19-1.17,3.51-1.87Zm18.89,76.13c6.93-9.92,4.55-23.32-5.38-30.28-9.86-6.91-23.34-4.49-30.27,5.45-6.91,9.9-4.51,23.55,5.34,30.35,9.93,6.86,23.38,4.41,30.31-5.51Z"/>
  <path d="M80.64,195.08c-1.84-.79-3.5-1.43-5.09-2.22-2.78-1.38-3.9-3.89-2.18-6.34,2.92-4.16,6.39-7.95,9.8-11.74,.44-.49,2.22-.44,2.9,.04,13.76,9.62,27.47,19.31,41.09,29.12,.74,.53,1.21,2.54,.81,3.37-1.86,3.78-3.84,7.54-6.22,11-2.94,4.28-5.79,4.22-9.3,.26-.75-.85-1.5-1.71-2.32-2.65-3.67,3.99-6.99,8.01-10.74,11.58-6.07,5.77-13.1,9.85-21.7,10.48-4.52,.33-6.06-.71-7.23-5.05-2.69-10.04-.02-19.26,4.57-28.12,1.64-3.17,3.56-6.21,5.61-9.74Z"/>
  <path d="M79,160.04c-8.33-1.92-16.34-3.52-24.18-5.77-1.56-.45-3.63-3.51-3.41-5.07,2.45-16.97,7.84-32.69,21.6-44.11,8.17-6.78,17.74-9.87,29.1-9.82-10.82,20.65-17.81,42.07-23.12,64.77Z"/>
  <path d="M143.65,205.71c19.35-12.4,37.29-26.08,53.16-43.24,.61,1.72,1.17,2.96,1.5,4.26,4.89,19.03-1.52,34.64-15.35,47.44-5.58,5.16-12.26,9.17-18.65,13.39-3.67,2.42-5.96,1.66-8.33-2.09-4.1-6.46-8.11-12.97-12.33-19.75Z"/>
  <path d="M168.69,45.05c11.21-5.01,22.95-7.84,35.14-8.85,11.61-.97,12.13-.56,15.05,10.58,2.78,10.61,3.97,21.4,3.58,32.36-.04,1.25-.21,2.49-.32,3.73-20.57-.84-44.9-17.27-53.44-37.81Z"/>
  <path d="M167.3,103.48c5.42,3.76,6.85,11.16,3.2,16.61-3.65,5.46-11.61,6.89-16.98,3.07-5.24-3.73-6.56-11.45-2.88-16.75,3.71-5.33,11.28-6.66,16.66-2.93Z"/>
</svg>